<?xml version="1.0" encoding="UTF-8"?><svg id="Layer_1" xmlns="http://www.w3.org/2000/svg" viewBox="0 0 496.21 240.76"><defs><style>.cls-1{fill:#3389ff;}</style></defs><g><path class="cls-1" d="M229.46,89.58v3.12h-16.66v-29.9h16.4v3.12h-12.17v9.78h11.19v3.12h-11.19v10.76h12.43Z"/><path class="cls-1" d="M243.63,73.77c-2.99,0-4.23,2.78-4.23,7.73v11.19h-3.89v-21.4h3.76v.64c0,1.71-.26,3.72-.73,6.11h.3c.77-5.21,2.35-7.35,6.06-7.35,3.29,0,5.3,2.48,5.17,7.39h.26c.51-4.87,2.26-7.39,6.24-7.39s5.64,2.69,5.64,7.94v14.05h-3.89v-13.67c0-3.59-1.11-5.25-3.42-5.25-2.9,0-4.1,2.86-4.1,8.16v10.76h-3.89v-13.71c0-3.54-.98-5.21-3.29-5.21Z"/><path class="cls-1" d="M285.19,82.96h-13.24c.17,4.78,1.84,7.09,5.21,7.09,2.56,0,3.8-1.15,4.4-3.89l3.54,1.02c-.77,3.97-3.59,6.11-7.99,6.11-5.77,0-9.14-4.14-9.14-11.32s3.37-11.28,9.05-11.28c5.25,0,8.29,3.59,8.29,9.74,0,.6-.04,1.62-.13,2.52Zm-3.84-2.82c0-4.4-1.41-6.53-4.31-6.53-3.12,0-4.95,2.39-5.08,6.53h9.4Z"/><path class="cls-1" d="M291.29,71.3h3.76v.43c0,1.24-.3,4.14-.68,7.09h.26c.6-5.04,1.96-8.11,5.42-8.11,1.07,0,2.01,.26,2.65,.73l-1.2,3.84c-.73-.51-1.62-.77-2.61-.77-2.35,0-3.72,1.92-3.72,6.62v11.57h-3.89v-21.4Z"/><path class="cls-1" d="M324.44,94.79c0,4.78-4.19,7.05-10.81,7.05s-9.44-1.96-9.44-5.42c0-2.65,2.05-4.19,5-4.44l1.71-.13v-.26h-1.71c-2.48-.04-4.31-1.15-4.31-3.54,0-2.01,1.28-3.25,3.63-3.67v-.26c-2.01-1.28-3.2-3.42-3.2-6.02,0-4.36,3.42-7.39,8.33-7.39,2.14,0,3.97,.56,5.38,1.58l.09-.09c-.21-.56-.3-1.03-.3-1.92,0-1.58,1.2-2.95,3.16-2.95,.64,0,1.28,.13,1.96,.38l-.68,3.5c-.6-.3-1.11-.43-1.71-.43-1.24,0-1.79,.64-1.79,1.45,0,.26,.04,.51,.17,.81,1.28,1.28,2.01,3.03,2.01,5.04,0,4.4-3.37,7.43-8.29,7.43-1.45,0-2.82-.26-3.93-.77-1.11,.6-1.58,1.28-1.58,2.26,0,1.32,.9,1.96,3.25,2.01l6.06,.09c4.91,.09,7,2.18,7,5.68Zm-3.97,.6c0-1.62-1.11-2.65-3.25-2.69l-6.41-.09c-2.26,.6-2.9,1.62-2.9,3.03,0,2.18,1.71,3.16,5.98,3.16s6.58-.9,6.58-3.42Zm-11.19-17.3c0,2.9,1.67,4.74,4.36,4.74s4.31-1.84,4.31-4.74-1.67-4.7-4.31-4.7-4.36,1.84-4.36,4.7Z"/><path class="cls-1" d="M328.66,62.11h4.23v5h-4.23v-5Zm.17,9.18h3.89v21.4h-3.89v-21.4Z"/><path class="cls-1" d="M340.19,71.3h3.76v.6c0,2.09-.26,3.76-.64,5.98h.26c.77-4.83,2.69-7.17,6.79-7.17,3.84,0,6.19,2.48,6.19,7.22v14.78h-3.89v-13.67c0-3.42-1.28-5.17-3.84-5.17-3.12,0-4.74,2.31-4.74,7.77v11.06h-3.89v-21.4Z"/><path class="cls-1" d="M381.88,94.79c0,4.78-4.19,7.05-10.81,7.05s-9.44-1.96-9.44-5.42c0-2.65,2.05-4.19,5-4.44l1.71-.13v-.26h-1.71c-2.48-.04-4.31-1.15-4.31-3.54,0-2.01,1.28-3.25,3.63-3.67v-.26c-2.01-1.28-3.2-3.42-3.2-6.02,0-4.36,3.42-7.39,8.33-7.39,2.14,0,3.97,.56,5.38,1.58l.09-.09c-.21-.56-.3-1.03-.3-1.92,0-1.58,1.2-2.95,3.16-2.95,.64,0,1.28,.13,1.96,.38l-.68,3.5c-.6-.3-1.11-.43-1.71-.43-1.24,0-1.79,.64-1.79,1.45,0,.26,.04,.51,.17,.81,1.28,1.28,2.01,3.03,2.01,5.04,0,4.4-3.37,7.43-8.29,7.43-1.45,0-2.82-.26-3.93-.77-1.11,.6-1.58,1.28-1.58,2.26,0,1.32,.9,1.96,3.25,2.01l6.06,.09c4.91,.09,7,2.18,7,5.68Zm-3.97,.6c0-1.62-1.11-2.65-3.25-2.69l-6.41-.09c-2.26,.6-2.9,1.62-2.9,3.03,0,2.18,1.71,3.16,5.98,3.16s6.58-.9,6.58-3.42Zm-11.19-17.3c0,2.9,1.67,4.74,4.36,4.74s4.31-1.84,4.31-4.74-1.67-4.7-4.31-4.7-4.36,1.84-4.36,4.7Z"/><path class="cls-1" d="M230.18,108.57h-8.2v26.52h-4.19v-26.52h-8.2v-3.37h20.59v3.37Z"/><path class="cls-1" d="M248.5,125.36h-13.24c.17,4.78,1.84,7.09,5.21,7.09,2.56,0,3.8-1.15,4.4-3.89l3.54,1.03c-.77,3.97-3.59,6.11-7.99,6.11-5.77,0-9.14-4.14-9.14-11.32s3.37-11.28,9.05-11.28c5.25,0,8.29,3.59,8.29,9.74,0,.6-.04,1.62-.13,2.52Zm-3.84-2.82c0-4.4-1.41-6.53-4.31-6.53-3.12,0-4.95,2.39-5.08,6.53h9.4Z"/><path class="cls-1" d="M253.11,124.5c0-7.05,3.63-11.4,9.31-11.4,4.83,0,7.64,2.56,7.94,6.83l-3.8,.68c-.3-2.69-1.54-4.4-4.14-4.4-3.12,0-5.25,3.07-5.25,8.11s1.88,8.11,5.13,8.11c2.39,0,3.8-1.54,4.23-4.19l3.72,.98c-.81,4.01-3.33,6.45-7.94,6.45-6.24,0-9.18-4.27-9.18-11.19Z"/><path class="cls-1" d="M275.54,104.52h3.89v8.24c0,2.56-.3,5.25-.73,7.52h.26c.77-4.83,2.65-7.17,6.75-7.17,3.89,0,6.19,2.48,6.19,7.17v14.82h-3.89v-13.67c0-3.42-1.32-5.17-3.89-5.17-3.08,0-4.7,2.31-4.7,7.77v11.06h-3.89v-30.58Z"/><path class="cls-1" d="M298.98,113.7h3.76v.6c0,2.09-.26,3.76-.64,5.98h.26c.77-4.83,2.69-7.17,6.79-7.17,3.84,0,6.19,2.48,6.19,7.22v14.78h-3.89v-13.67c0-3.42-1.28-5.17-3.84-5.17-3.12,0-4.74,2.31-4.74,7.77v11.06h-3.89v-21.4Z"/><path class="cls-1" d="M321.1,124.37c0-7.26,3.33-11.28,9.22-11.28s9.23,4.01,9.23,11.28-3.29,11.32-9.23,11.32-9.22-4.01-9.22-11.32Zm14.39,0c0-5.38-1.84-8.29-5.17-8.29s-5.17,2.9-5.17,8.29,1.84,8.33,5.17,8.33,5.17-2.95,5.17-8.33Z"/><path class="cls-1" d="M349.46,104.52v30.58h-3.89v-30.58h3.89Z"/><path class="cls-1" d="M355.48,124.37c0-7.26,3.33-11.28,9.22-11.28s9.23,4.01,9.23,11.28-3.29,11.32-9.23,11.32-9.22-4.01-9.22-11.32Zm14.39,0c0-5.38-1.84-8.29-5.17-8.29s-5.17,2.9-5.17,8.29,1.84,8.33,5.17,8.33,5.17-2.95,5.17-8.33Z"/><path class="cls-1" d="M397.98,137.19c0,4.78-4.19,7.05-10.81,7.05s-9.44-1.96-9.44-5.42c0-2.65,2.05-4.19,5-4.44l1.71-.13v-.26h-1.71c-2.48-.04-4.31-1.15-4.31-3.54,0-2.01,1.28-3.25,3.63-3.67v-.26c-2.01-1.28-3.2-3.42-3.2-6.02,0-4.36,3.42-7.39,8.33-7.39,2.14,0,3.97,.56,5.38,1.58l.09-.09c-.21-.56-.3-1.03-.3-1.92,0-1.58,1.2-2.95,3.16-2.95,.64,0,1.28,.13,1.96,.38l-.68,3.5c-.6-.3-1.11-.43-1.71-.43-1.24,0-1.79,.64-1.79,1.45,0,.26,.04,.51,.17,.81,1.28,1.28,2.01,3.03,2.01,5.04,0,4.4-3.37,7.43-8.29,7.43-1.45,0-2.82-.26-3.93-.77-1.11,.6-1.58,1.28-1.58,2.26,0,1.32,.9,1.96,3.25,2.01l6.06,.09c4.91,.09,7,2.18,7,5.68Zm-3.97,.6c0-1.62-1.11-2.65-3.25-2.69l-6.41-.09c-2.26,.6-2.9,1.62-2.9,3.03,0,2.18,1.71,3.16,5.98,3.16s6.58-.9,6.58-3.42Zm-11.19-17.3c0,2.9,1.67,4.74,4.36,4.74s4.31-1.84,4.31-4.74-1.67-4.7-4.31-4.7-4.36,1.84-4.36,4.7Z"/><path class="cls-1" d="M399.68,143.17l1.32-3.07c.98,.6,1.88,.85,2.69,.85,1.54,0,2.56-.85,3.2-2.82l.85-2.48-7.52-21.95h4.14l4.27,12.77c.68,2.05,.98,3.37,1.07,5.98h.3c.09-2.48,.26-3.67,.98-5.81l4.36-12.94h3.46l-8.8,25.5c-1.07,3.07-3.2,5.04-6.28,5.04-1.37,0-2.9-.38-4.06-1.07Z"/><path class="cls-1" d="M222.92,147c7.43,0,11.66,5.3,11.66,15.55s-4.23,15.55-11.66,15.55-11.62-5.3-11.62-15.55,4.23-15.55,11.62-15.55Zm0,27.72c4.95,0,7.18-3.8,7.18-12.17s-2.22-12.17-7.18-12.17-7.13,3.8-7.13,12.17,2.22,12.17,7.13,12.17Z"/><path class="cls-1" d="M244.45,172.12h-.26c.47,1.84,.68,3.16,.68,4.61v.77h-3.84v-30.58h3.89v8.41c0,2.31-.21,4.06-.81,6.45h.26c1.02-4.06,2.99-6.28,6.71-6.28,4.74,0,7.82,4.27,7.82,11.23s-3.2,11.36-7.94,11.36c-3.72,0-5.47-2.18-6.49-5.98Zm10.34-5.42c0-5.25-1.84-8.16-5.17-8.16s-5.13,2.86-5.13,8.2,1.84,8.33,5.13,8.33,5.17-3.03,5.17-8.37Z"/><path class="cls-1" d="M262.77,171.43l3.54-.81c.3,2.95,2.09,4.48,5.17,4.48,2.65,0,4.01-1.24,4.01-3.12s-.98-2.61-2.61-3.12l-3.42-.94c-3.93-1.15-5.98-2.99-5.98-6.36,0-3.72,3.03-6.06,7.99-6.06,4.57,0,7.6,2.01,7.94,5.94l-3.54,.81c-.3-2.61-1.96-3.8-4.48-3.8s-3.93,1.11-3.93,2.86c0,1.96,1.28,2.73,3.37,3.37l3.29,.98c3.84,1.11,5.34,2.82,5.34,5.89,0,4.19-3.03,6.53-8.11,6.53-5.34,0-8.2-2.39-8.58-6.66Z"/><path class="cls-1" d="M300.78,167.76h-13.24c.17,4.78,1.84,7.09,5.21,7.09,2.56,0,3.8-1.15,4.4-3.89l3.54,1.03c-.77,3.97-3.59,6.11-7.99,6.11-5.77,0-9.14-4.14-9.14-11.32s3.37-11.28,9.05-11.28c5.25,0,8.29,3.59,8.29,9.74,0,.6-.04,1.62-.13,2.52Zm-3.84-2.82c0-4.4-1.41-6.53-4.31-6.53-3.12,0-4.95,2.39-5.08,6.53h9.4Z"/><path class="cls-1" d="M306.88,156.1h3.76v.43c0,1.24-.3,4.14-.68,7.09h.26c.6-5.04,1.96-8.11,5.42-8.11,1.07,0,2.01,.26,2.65,.73l-1.2,3.84c-.73-.51-1.62-.77-2.6-.77-2.35,0-3.72,1.92-3.72,6.62v11.57h-3.89v-21.4Z"/><path class="cls-1" d="M327.55,177.5l-7.22-21.4h4.23l3.37,10.89c1.11,3.42,1.75,6.19,1.88,7.94h.26c.04-1.75,.51-4.27,1.54-7.47l3.63-11.36h3.59l-7.17,21.4h-4.1Z"/><path class="cls-1" d="M358.81,177.5h-4.01c-.26-1.11-.34-1.67-.34-2.43,0-.85,.13-1.67,.38-3.2h-.26c-.77,4.1-2.82,6.24-6.75,6.24s-6.19-2.22-6.19-5.98,2.52-5.85,7.56-6.58l5.04-.73v-1.24c0-3.59-1.28-5.13-4.14-5.13s-4.36,1.58-4.53,4.48l-3.72-.73c.34-4.4,3.25-6.71,8.33-6.71,5.38,0,7.94,2.69,7.94,7.73v6.75c0,3.46,.21,5.89,.68,7.52Zm-4.57-8.71v-1.03l-4.48,.77c-2.52,.43-4.1,1.24-4.1,3.42,0,2.05,1.37,3.12,3.54,3.12,3.08,0,5.04-2.01,5.04-6.28Z"/><path class="cls-1" d="M377.31,176.73c-.77,.51-2.9,1.37-4.87,1.37-3.93,0-6.11-1.92-6.11-6.96v-12.13h-4.27v-2.9h4.27v-5.51l3.89-1.75v7.26h6.41v2.9h-6.41v11.4c0,3.46,.85,4.27,2.9,4.27,1.15,0,2.56-.47,3.63-1.15l.56,3.2Z"/><path class="cls-1" d="M379.91,166.78c0-7.26,3.33-11.28,9.22-11.28s9.23,4.01,9.23,11.28-3.29,11.32-9.23,11.32-9.22-4.01-9.22-11.32Zm14.39,0c0-5.38-1.84-8.29-5.17-8.29s-5.17,2.9-5.17,8.29,1.84,8.33,5.17,8.33,5.17-2.95,5.17-8.33Z"/><path class="cls-1" d="M404.38,156.1h3.76v.43c0,1.24-.3,4.14-.68,7.09h.26c.6-5.04,1.96-8.11,5.42-8.11,1.07,0,2.01,.26,2.65,.73l-1.2,3.84c-.73-.51-1.62-.77-2.61-.77-2.35,0-3.72,1.92-3.72,6.62v11.57h-3.89v-21.4Z"/><path class="cls-1" d="M416.94,185.57l1.32-3.07c.98,.6,1.88,.85,2.69,.85,1.54,0,2.56-.85,3.2-2.82l.85-2.48-7.52-21.95h4.14l4.27,12.77c.68,2.05,.98,3.37,1.07,5.98h.3c.09-2.48,.26-3.67,.98-5.81l4.36-12.94h3.46l-8.8,25.5c-1.07,3.07-3.2,5.04-6.28,5.04-1.37,0-2.9-.38-4.06-1.07Z"/></g><path class="cls-1" d="M163.34,79.24c-.26-.27-.52-.54-.79-.81-.26-.27-.53-.53-.81-.79-23.84-23.02-61.32-23.26-84.23-.35-22.9,22.9-22.67,60.38,.35,84.22,.26,.27,.52,.54,.79,.81,.26,.27,.53,.53,.81,.79,23.84,23.02,61.31,23.26,84.22,.35,22.9-22.9,22.67-60.38-.35-84.22Zm-68.31,47.5c-1.62-8.34,.98-17.54,7.69-24.24,6.71-6.71,15.9-9.3,24.24-7.69-7.21,.32-15.17,3.87-21.62,10.31-6.45,6.45-9.99,14.41-10.31,21.62Zm40.83,8.9c6.45-6.45,9.99-14.41,10.31-21.62,1.62,8.34-.98,17.53-7.69,24.24-6.71,6.71-15.91,9.3-24.24,7.69,7.21-.32,15.17-3.87,21.62-10.31Zm-41.31-41.31c-8.87,8.87-13.75,20-14.38,30.67-1.59-12.05,2.17-24.58,11.32-33.73,9.15-9.15,21.67-12.91,33.72-11.32-10.66,.64-21.79,5.51-30.66,14.38Zm52.1,52.1c8.88-8.87,13.75-20,14.38-30.67,1.59,12.04-2.17,24.57-11.32,33.72-9.15,9.15-21.67,12.91-33.71,11.33,10.66-.64,21.78-5.52,30.65-14.38ZM80.93,80.7c12.83-12.83,30.62-17.78,47.53-14.92-14.81,.54-30.45,7.21-42.85,19.6-12.4,12.4-19.06,28.03-19.6,42.85-2.86-16.91,2.08-34.71,14.92-47.54Zm79.36,79.36c-12.84,12.84-30.64,17.78-47.56,14.91,14.82-.54,30.47-7.19,42.88-19.6,12.4-12.4,19.06-28.03,19.6-42.85,2.86,16.91-2.08,34.71-14.91,47.54Z"/></svg>